<?xml version="1.0" standalone="no"?>
<!DOCTYPE svg PUBLIC "-//W3C//DTD SVG 20010904//EN"
 "http://www.w3.org/TR/2001/REC-SVG-20010904/DTD/svg10.dtd">
<svg version="1.0" xmlns="http://www.w3.org/2000/svg"
 width="406.000000pt" height="407.000000pt" viewBox="0 0 406.000000 407.000000"
 preserveAspectRatio="xMidYMid meet">

<g transform="translate(0.000000,407.000000) scale(0.100000,-0.100000)"
fill="#000000" stroke="none">
<path d="M2520 3446 c-250 -70 -407 -320 -356 -566 49 -237 243 -399 476 -400
130 0 247 47 343 139 104 99 149 205 149 351 0 228 -147 417 -369 475 -68 18
-180 18 -243 1z"/>
<path d="M1313 3355 c-82 -22 -152 -62 -215 -123 -278 -265 -155 -730 219
-827 219 -57 455 52 556 257 139 281 -13 613 -317 694 -65 17 -176 17 -243 -1z"/>
<path d="M403 2555 c-162 -45 -290 -166 -342 -322 -25 -74 -28 -215 -7 -284
52 -172 184 -300 351 -344 277 -72 557 112 605 397 39 228 -98 461 -317 540
-75 27 -217 34 -290 13z"/>
<path d="M3370 2545 c-74 -21 -101 -34 -166 -80 -193 -138 -255 -400 -147
-617 145 -290 534 -358 769 -136 108 102 154 209 154 358 0 149 -46 256 -154
358 -92 87 -211 133 -341 131 -38 0 -90 -7 -115 -14z"/>
<path d="M1880 2279 c-333 -38 -635 -269 -761 -584 -151 -378 -44 -818 263
-1075 602 -506 1520 -108 1555 675 23 502 -333 923 -832 984 -100 12 -117 12
-225 0z"/>
</g>
</svg>
